<?xml version="1.0" encoding="iso-8859-1"?>
<!-- Generator: Adobe Illustrator 19.0.0, SVG Export Plug-In . SVG Version: 6.00 Build 0)  -->
<svg version="1.1" id="Layer_1" xmlns="http://www.w3.org/2000/svg" xmlns:xlink="http://www.w3.org/1999/xlink" x="0px" y="0px"
	 viewBox="0 0 512 512" style="enable-background:new 0 0 512 512;" xml:space="preserve">
<g>
	<g>
		<path d="M197.483,204.197l-53.333-32c-4.992-3.008-11.584-1.408-14.635,3.648c-3.008,5.056-1.387,11.605,3.669,14.635l53.333,32
			c1.707,1.024,3.605,1.515,5.483,1.515c3.605,0,7.147-1.835,9.152-5.163C204.181,213.776,202.539,207.227,197.483,204.197z"/>
	</g>
</g>
<g>
	<g>
		<path d="M261.483,182.864l-53.333-32c-4.992-3.029-11.584-1.408-14.635,3.648c-3.008,5.056-1.387,11.605,3.669,14.635l53.333,32
			c1.707,1.024,3.605,1.515,5.483,1.515c3.605,0,7.147-1.835,9.152-5.163C268.181,192.443,266.539,185.893,261.483,182.864z"/>
	</g>
</g>
<g>
	<g>
		<path d="M325.483,161.531l-53.333-32c-4.992-3.029-11.563-1.408-14.635,3.648c-3.008,5.056-1.387,11.605,3.669,14.635l53.333,32
			c1.707,1.024,3.605,1.515,5.483,1.515c3.605,0,7.147-1.835,9.152-5.163C332.181,171.109,330.539,164.56,325.483,161.531z"/>
	</g>
</g>
<g>
	<g>
		<path d="M389.483,140.197l-53.333-32c-4.992-3.008-11.605-1.408-14.635,3.648c-3.008,5.056-1.387,11.605,3.669,14.635l53.333,32
			c1.707,1.024,3.605,1.515,5.483,1.515c3.605,0,7.147-1.835,9.152-5.163C396.181,149.776,394.539,143.227,389.483,140.197z"/>
	</g>
</g>
<g>
	<g>
		<path d="M511.744,158.992c-0.107-1.024-0.32-2.005-0.704-2.944c-0.213-0.533-0.448-1.003-0.747-1.493
			c-0.512-0.853-1.152-1.557-1.899-2.24c-0.299-0.277-0.427-0.661-0.768-0.896c-0.149-0.107-0.363-0.107-0.512-0.213
			c-0.192-0.128-0.299-0.32-0.512-0.448L357.269,65.424c-2.581-1.472-5.653-1.835-8.469-0.917L7.467,171.173
			c-0.469,0.128-0.832,0.469-1.28,0.683c-0.277,0.128-0.597,0.085-0.853,0.235c-0.213,0.128-0.32,0.384-0.533,0.533
			c-1.216,0.811-2.197,1.813-2.965,2.987c-0.128,0.213-0.32,0.341-0.448,0.555c-0.811,1.472-1.216,3.093-1.28,4.8
			c0,0.128-0.107,0.235-0.107,0.363v170.667c0,3.819,2.048,7.36,5.376,9.259l149.333,85.333c1.643,0.939,3.456,1.408,5.291,1.408
			c1.045,0,2.133-0.149,3.157-0.491l341.333-106.667c4.459-1.387,7.509-5.504,7.509-10.176V159.995
			C512,159.653,511.787,159.355,511.744,158.992z M149.333,418.939l-128-73.131V199.717l128,73.131V418.939z M161.259,255.099
			L37.205,184.208L350.72,86.224l124.053,70.891L161.259,255.099z M490.667,322.811l-320,100.011V274.491l320-99.989V322.811z"/>
	</g>
</g>
<g>
</g>
<g>
</g>
<g>
</g>
<g>
</g>
<g>
</g>
<g>
</g>
<g>
</g>
<g>
</g>
<g>
</g>
<g>
</g>
<g>
</g>
<g>
</g>
<g>
</g>
<g>
</g>
<g>
</g>
</svg>
