<?xml version="1.0" encoding="iso-8859-1"?>
<!-- Generator: Adobe Illustrator 19.0.0, SVG Export Plug-In . SVG Version: 6.00 Build 0)  -->
<svg version="1.1" id="Capa_1" xmlns="http://www.w3.org/2000/svg" xmlns:xlink="http://www.w3.org/1999/xlink" x="0px" y="0px"
	 viewBox="0 0 417.8 417.8" style="enable-background:new 0 0 417.8 417.8;" xml:space="preserve">
<g>
	<g>
		<path d="M274.35,0h-130.8c-8.5,0.1-15.4,7-15.6,15.5v20.3c0.1,4.2,1.9,8.2,5,11.1l36,33.7v62.7l-6.7,5.3c-4.3,3.4-5,9.7-1.6,14
			c1.9,2.4,4.8,3.8,7.9,3.7c0.1,0,0.3,0,0.3,0v28.9l-6.7,5.3c-4.3,3.4-5,9.7-1.6,14c1.9,2.4,4.8,3.8,7.9,3.7c0.1,0,0.4,0,0.4,0v28.9
			l-6.7,5.3c-4.3,3.4-5,9.7-1.6,14c1.9,2.4,4.8,3.8,7.9,3.7c0.1,0,0.4,0,0.4,0V299l-6.7,5.3c-4.3,3.4-5,9.7-1.6,14
			c1.9,2.4,4.8,3.8,7.9,3.7c0.1,0,0.4,0,0.4,0v11.9l40,83.9l40-83.9v-74.1l6.7-5.3c4.3-3.5,4.9-9.8,1.4-14.1c-2-2.4-5-3.8-8.1-3.7
			v-28.5l6.7-5.3c4.3-3.5,4.9-9.8,1.4-14.1c-2-2.4-5-3.8-8.1-3.7v-28.9l6.7-5.3c4.3-3.5,4.9-9.8,1.4-14.1c-2-2.4-5-3.8-8.1-3.7
			v-28.9l6.7-5.3c4.3-3.5,4.9-9.8,1.4-14.1c-2-2.4-5-3.8-8.1-3.7v-0.5l36-33.7c3.1-2.9,4.9-6.8,5-11V15.6
			C289.75,7,282.85,0.1,274.35,0z M228.95,329.8l-20,42.1l-20-42.1v-20.9l40-32.5V329.8z M228.95,250.6l-40,32.5v-26.3l40-32.5
			V250.6z M228.95,198.6l-40,32.5v-26.3l40-32.5V198.6z M228.95,146.6l-40,32.5v-26.3l40-32.5V146.6z M269.95,33.7l-41,38.2v22.7
			l-40,32.5V71.9l-41-38.2V20h122V33.7z"/>
	</g>
</g>
<g>
</g>
<g>
</g>
<g>
</g>
<g>
</g>
<g>
</g>
<g>
</g>
<g>
</g>
<g>
</g>
<g>
</g>
<g>
</g>
<g>
</g>
<g>
</g>
<g>
</g>
<g>
</g>
<g>
</g>
</svg>
